# xmcd
#
# Track frame offsets:
#	182
#	11715
#	21762
#	34320
#	46680
#	58840
#	70645
#	83597
#	96370
#	110437
#	123360
#	134480
#	145142
#	156577
#	168877
#	178980
#	193277
#	208015
#
# Disc length: 2911 seconds
#
# Revision: 3
# Processed by: cddbd v1.5.2PL0 Copyright (c) Steve Scherf et al.
# Submitted via: audiograbber 1.83.01
#
DISCID=040b5d12
DTITLE=Various Artist - Country Ladies
DYEAR=1994
DGENRE=Country
TTITLE0=Skeeter Davis - Gonna get along without you
TTITLE1=Kitty Wells - I can't stop loving you
TTITLE2=Wanda Jackson - Crazy
TTITLE3=Jeannie Pruett - Satin sheets
TTITLE4=Lynn Anderson - How can I unlove you
TTITLE5=Wilma Burgess - Misty blue
TTITLE6=Norma Jean - Let's go all the way
TTITLE7=Jeannie Seely - I'll love you more
TTITLE8=Billie Jo Spears - Mr. Walker it's all over
TTITLE9=Jeannie C Riley - There never was a time
TTITLE10=Jean Shepard - A satisfied mind
TTITLE11=Connie Smith - Ain't had no lovin'
TTITLE12=Donna Fargo - Superman
TTITLE13=Sammi Smith - Send me the pillow that you dream on
TTITLE14=Susan Raye - Pitty pitty patter
TTITLE15=Margo Smith - It only hurts for a little while
TTITLE16=Marion Worth - Shake me a rattle
TTITLE17=Barbara Fairchild - Kid stuff
EXTD=
EXTT0=
EXTT1=
EXTT2=
EXTT3=
EXTT4=
EXTT5=
EXTT6=
EXTT7=
EXTT8=
EXTT9=
EXTT10=
EXTT11=
EXTT12=
EXTT13=
EXTT14=
EXTT15=
EXTT16=
EXTT17=
PLAYORDER=
